<svg width="60" height="79" viewBox="0 0 60 79" fill="none" xmlns="http://www.w3.org/2000/svg">
<path d="M41.439 15C41.439 15.0117 41.4395 15.0224 41.44 15.0325C41.4434 15.1058 41.445 15.1413 41.2379 15.2646C40.858 15.4906 40.1185 15.7167 38.8633 15.8589C37.0135 16.0685 34.6785 16.0457 31.9704 16.0193C31.0056 16.0099 29.9935 16 28.939 16C27.8956 16 26.884 16.0097 25.9119 16.0191C23.1507 16.0457 20.7077 16.0692 18.7548 15.8578C17.4314 15.7146 16.6124 15.4846 16.1732 15.2385C15.9099 15.091 15.926 15.0432 15.9359 15.0136C15.9376 15.0087 15.939 15.0043 15.939 15C15.939 14.6002 16.203 13.5699 16.9775 12.0497C17.7084 10.6151 18.7729 8.97974 20.0686 7.44302C22.7563 4.25535 25.994 2 28.939 2C31.863 2 34.9727 4.23158 37.5308 7.40822C38.764 8.93954 39.7691 10.5718 40.4575 12.0068C41.1829 13.5191 41.439 14.5689 41.439 15Z" fill="#395B50" stroke="#FFFDFD" stroke-width="4"/>
<path d="M2.30636 77L10.8869 17H45.6463L57.5637 77H2.30636Z" fill="#395B50" stroke="#FFFDFD" stroke-width="4"/>
</svg>
